PathFileType	4	(X/Y/Z)	OpenSim_Sub07_CSStiffKnee_Gyro.trc
DataRate	CameraRate	NumFrames	NumMarkers	Units	OrigDataRate	OrigDataStartFrame	OrigNumFrames
100	100	13	8	m	100	2526	6734
Frame#	Time	torso_imu_offset_imu	pelvis_imu_offset_imu	tibia_r_imu_offset_imu	femur_r_imu_offset_imu	tibia_l_imu_offset_imu	femur_l_imu_offset_imu	toes_r_imu_offset_imu	toes_l_imu_offset_imu
				X1	Y1	Z1	X2	Y2	Z2	X3	Y3	Z3	X4	Y4	Z4	X5	Y5	Z5	X6	Y6	Z6	X7	Y7	Z7	X8		Y8	Z8	

2526	25.25000000	0.15562606	0.09214683	-0.12697619	-0.03139649	0.16596356	0.38871937	-1.64957290	0.04889892	1.39770409	0.68563492	-0.52920830	1.52479748	0.08303416	0.07457442	0.47643748	0.57666780	-0.28825562	0.71284277	-0.32843694	2.83923690	-1.35337539	0.02952636	-0.14419990	0.05684396
2527	25.26000000	0.15443341	0.09173293	-0.09332915	-0.01007178	0.19198277	0.38883277	-1.43637528	0.31325965	1.71592586	1.04421838	-0.39407818	1.49242908	0.05434664	0.07811707	0.49303524	0.47011622	-0.28076466	0.69578651	0.00407041	3.19578789	-1.17678804	0.03146169	-0.15142390	0.06731476
2528	25.27000000	0.14478767	0.10003619	-0.06790436	0.00125353	0.20382265	0.39208880	-1.13237012	0.54476738	1.99366706	1.27266408	-0.27093956	1.46924169	0.05962583	0.07002726	0.53102985	0.35574753	-0.27671794	0.67041080	0.23400240	3.48699559	-0.94971497	0.03943161	-0.12999463	0.08542253
2529	25.28000000	0.13554932	0.11670355	-0.04487611	0.01270066	0.20290507	0.38960542	-0.80319747	0.71370225	2.24198688	1.41234808	-0.17333300	1.40702270	0.05182594	0.07786399	0.52668984	0.26704035	-0.27330737	0.62709052	0.26013608	3.71016794	-0.67831662	0.00589071	-0.13539296	0.12584671
2530	25.29000000	0.12111320	0.13716597	-0.03372118	0.03326435	0.20658338	0.38597876	-0.59186635	0.89441431	2.48688075	1.48348130	-0.10233405	1.30297810	0.02776451	0.07034957	0.53514965	0.17006584	-0.25220218	0.62918546	0.12512319	3.87182357	-0.40962395	-0.00273607	-0.13689854	0.16626637
2531	25.30000000	0.11138741	0.16565265	-0.03306141	0.03867521	0.20745291	0.38156134	-0.50850560	1.07302373	2.78629146	1.46316031	-0.05541019	1.20102644	-0.03557660	0.05746279	0.59266021	0.13408844	-0.23476855	0.59409581	-0.06666714	3.99510912	-0.19581165	-0.02083413	-0.13764115	0.21602101
2532	25.31000000	0.10113276	0.19504354	-0.03270062	0.03977719	0.21332428	0.35650831	-0.34808662	1.23330920	3.01958991	1.31822388	-0.05571030	1.13537212	-0.01917238	0.06738503	0.63456491	0.11022276	-0.24134470	0.56722359	-0.25862395	4.07170402	-0.04761742	-0.02926480	-0.09650885	0.25782234
2533	25.32000000	0.09637403	0.22360955	-0.02604177	0.04172263	0.21443173	0.33739831	-0.08555517	1.38828904	3.13933378	1.13048052	-0.11725985	1.08369058	-0.08560764	0.07656428	0.64009409	0.07605098	-0.27471137	0.53777367	-0.41085546	4.13203758	0.03210221	-0.06161931	-0.11433994	0.29137557
2534	25.33000000	0.09138904	0.24845457	-0.02038505	0.02253471	0.21676053	0.32199811	0.20747848	1.50138165	3.24015700	0.95057368	-0.22732294	1.00925500	-0.10884033	0.08696783	0.64229873	0.00953427	-0.30561496	0.53146991	-0.53153190	4.21747898	0.04889226	-0.09126169	-0.10353292	0.32903171
2535	25.34000000	0.08790615	0.26056599	-0.01084747	-0.00503149	0.21106627	0.29408434	0.73092592	1.70198315	3.36720314	0.80150516	-0.33905302	0.88117770	-0.10587770	0.11113352	0.66243351	-0.05329203	-0.33309370	0.53452870	-0.66564762	4.30379056	0.04809639	-0.10806560	-0.07235794	0.34037605
2536	25.35000000	0.08502984	0.26601795	-0.00694789	-0.01523496	0.20586715	0.29465764	1.50449852	1.93099755	3.52544161	0.67011943	-0.39888649	0.74098315	-0.16236967	0.11449347	0.68704499	-0.09423015	-0.35328255	0.51975565	-0.82697654	4.37246358	0.06953146	-0.09174782	-0.06379428	0.32843508
2537	25.36000000	0.08987483	0.26389303	0.00141496	-0.01620087	0.21064340	0.28361923	2.28336257	2.10969330	3.68780731	0.49738215	-0.41761955	0.59732388	-0.13294343	0.10929415	0.67608629	-0.15612328	-0.35887135	0.52488134	-0.92845090	4.39169472	0.13738054	-0.07952697	-0.06070294	0.31983523
2538	25.37000000	0.07933598	0.25939120	0.01388514	-0.01481734	0.22341948	0.29178511	2.56634360	2.28687461	3.86822764	0.23759223	-0.41514065	0.46137050	-0.07071831	0.11136573	0.64863574	-0.18740851	-0.34742756	0.56569498	-0.93862726	4.33870438	0.23058674	-0.11262696	-0.07926096	0.30976993
